HIERARCHY
ROOT joint_0
{
	OFFSET 0.000000 0.000000 0.000000
	CHANNELS 6 Xposition Yposition Zposition Zrotation Yrotation Xrotation 
	JOINT joint_1
	{
		OFFSET 0.587158 0.057678 95.682007
		CHANNELS 3 Zrotation Yrotation Xrotation
		JOINT joint_2
		{
			OFFSET -7.116699 -0.219910 87.157959
			CHANNELS 3 Zrotation Yrotation Xrotation
			JOINT joint_3
			{
				OFFSET -5.892822 -0.290222 87.151001
				CHANNELS 3 Zrotation Yrotation Xrotation
				JOINT joint_4
				{
					OFFSET 5.544678 -0.099609 123.768066
					CHANNELS 3 Zrotation Yrotation Xrotation
					JOINT joint_5
					{
						OFFSET 41.981201 4.519775 84.257935
						CHANNELS 3 Zrotation Yrotation Xrotation
						End Site
						{
							OFFSET 0.000000 0.000000 0.000000
						}
					}
				}
				JOINT joint_6
				{
					OFFSET 3.940918 -26.976501 69.308105
					CHANNELS 3 Zrotation Yrotation Xrotation
					JOINT joint_7
					{
						OFFSET 4.776123 -152.592468 -16.842041
						CHANNELS 3 Zrotation Yrotation Xrotation
						JOINT joint_8
						{
							OFFSET 54.421875 -30.424072 -248.864014
							CHANNELS 3 Zrotation Yrotation Xrotation
							JOINT joint_9
							{
								OFFSET 42.120117 -33.387878 -236.524963
								CHANNELS 3 Zrotation Yrotation Xrotation
								End Site
								{
									OFFSET 0.000000 0.000000 0.000000
								}
							}
						}
					}
				}
				JOINT joint_10
				{
					OFFSET 2.312012 26.904114 69.425049
					CHANNELS 3 Zrotation Yrotation Xrotation
					JOINT joint_11
					{
						OFFSET 0.971436 152.197815 -20.626953
						CHANNELS 3 Zrotation Yrotation Xrotation
						JOINT joint_12
						{
							OFFSET 49.954102 28.991455 -249.970093
							CHANNELS 3 Zrotation Yrotation Xrotation
							JOINT joint_13
							{
								OFFSET 48.146973 19.598389 -236.919922
								CHANNELS 3 Zrotation Yrotation Xrotation
								End Site
								{
									OFFSET 0.000000 0.000000 0.000000
								}
							}
						}
					}
				}
			}
		}
	}
	JOINT joint_14
	{
		OFFSET 16.305664 -89.442932 -108.224976
		CHANNELS 3 Zrotation Yrotation Xrotation
		JOINT joint_15
		{
			OFFSET -22.282471 13.437134 -412.904968
			CHANNELS 3 Zrotation Yrotation Xrotation
			JOINT joint_16
			{
				OFFSET -45.426025 14.484802 -445.892029
				CHANNELS 3 Zrotation Yrotation Xrotation
				JOINT joint_17
				{
					OFFSET 173.389404 -9.944031 -76.473001
					CHANNELS 3 Zrotation Yrotation Xrotation
					End Site
					{
						OFFSET 0.000000 0.000000 0.000000
					}
				}
			}
		}
	}
	JOINT joint_18
	{
		OFFSET 13.392822 89.408875 -108.653992
		CHANNELS 3 Zrotation Yrotation Xrotation
		JOINT joint_19
		{
			OFFSET -29.032959 24.483521 -411.977966
			CHANNELS 3 Zrotation Yrotation Xrotation
			JOINT joint_20
			{
				OFFSET -30.530029 28.986328 -446.453018
				CHANNELS 3 Zrotation Yrotation Xrotation
				JOINT joint_21
				{
					OFFSET 170.330078 33.400757 -76.698997
					CHANNELS 3 Zrotation Yrotation Xrotation
					End Site
					{
						OFFSET 0.000000 0.000000 0.000000
					}
				}
			}
		}
	}
}
MOTION
Frames: 18
Frame Time: 0.016667
-1830.844604 1088.692871 1060.373047 -51.817672 -2.441409 0.343056 0.673737 0.983637 -0.189290 0.769756 -0.206808 0.050480 0.774575 0.198914 -0.060446 0.957797 2.265888 -2.007651 0.000000 0.000000 0.000000 -0.809584 1.062250 0.466085 1.191796 2.106694 -0.377658 0.896339 -1.049997 0.606830 0.000000 0.000000 0.000000 2.314229 2.461250 -2.050273 0.497791 2.537557 2.763947 0.223412 -0.566382 0.784248 0.000000 0.000000 0.000000 -2.111669 -0.276480 -4.655516 -2.466242 5.077318 -0.086238 -2.634391 -2.778340 -1.315694 0.000000 0.000000 0.000000 33.256640 -3.430114 2.782334 32.633456 -2.061295 2.697362 33.016742 8.112335 12.988014 0.000000 0.000000 0.000000 
-1830.908203 1088.728760 1060.381958 -51.795977 -2.439997 0.336890 0.671038 0.973973 -0.188229 0.766045 -0.205232 0.047712 0.771151 0.196967 -0.057762 0.956862 2.264306 -2.006200 0.000000 0.000000 0.000000 -0.806996 1.070414 0.471787 1.187906 2.115107 -0.371582 0.886307 -1.030606 0.602368 0.000000 0.000000 0.000000 2.317443 2.461384 -2.043636 0.496067 2.537925 2.755322 0.222817 -0.564343 0.780584 0.000000 0.000000 0.000000 -2.118543 -0.287469 -4.643431 -2.469238 5.094407 -0.093597 -2.641052 -2.796310 -1.319583 0.000000 0.000000 0.000000 33.251869 -3.440299 2.785346 32.628728 -2.064881 2.692146 33.011290 8.106766 12.987553 0.000000 0.000000 0.000000 
-1830.961914 1088.766724 1060.389038 -51.782878 -2.437090 0.330717 0.672442 0.964093 -0.185806 0.766375 -0.203688 0.044899 0.771698 0.195256 -0.056082 0.955524 2.260504 -2.004080 0.000000 0.000000 0.000000 -0.806190 1.079922 0.477298 1.185800 2.124879 -0.365520 0.878535 -1.016232 0.598999 0.000000 0.000000 0.000000 2.318077 2.461261 -2.039058 0.493939 2.537997 2.750349 0.220293 -0.567409 0.775455 0.000000 0.000000 0.000000 -2.121730 -0.299231 -4.635790 -2.469901 5.109170 -0.094123 -2.643965 -2.815748 -1.321927 0.000000 0.000000 0.000000 33.249787 -3.455793 2.788028 32.626030 -2.059673 2.693145 33.007506 8.101501 12.987230 0.000000 0.000000 0.000000 
-1830.999512 1088.810791 1060.394043 -51.783331 -2.430874 0.325197 0.679247 0.952334 -0.184662 0.772435 -0.201199 0.046112 0.777531 0.192455 -0.056629 0.954787 2.250986 -2.003669 0.000000 0.000000 0.000000 -0.804795 1.092351 0.482109 1.186746 2.137881 -0.360298 0.874443 -1.010532 0.596884 0.000000 0.000000 0.000000 2.320932 2.461166 -2.040047 0.491303 2.537041 2.753047 0.214313 -0.579147 0.767303 0.000000 0.000000 0.000000 -2.118841 -0.313626 -4.636941 -2.466795 5.122167 -0.082451 -2.641009 -2.844356 -1.322236 0.000000 0.000000 0.000000 33.252006 -3.482376 2.790550 32.626729 -2.035270 2.703410 33.005637 8.096446 12.986832 0.000000 0.000000 0.000000 
-1831.027832 1088.856567 1060.397949 -51.792573 -2.422895 0.319974 0.689410 0.939807 -0.183188 0.781855 -0.198635 0.047887 0.786600 0.190320 -0.058396 0.953812 2.238624 -2.002922 0.000000 0.000000 0.000000 -0.802448 1.105796 0.487441 1.189191 2.152128 -0.355603 0.872498 -1.009564 0.596222 0.000000 0.000000 0.000000 2.323948 2.460674 -2.042410 0.488343 2.535340 2.758789 0.206576 -0.595435 0.757608 0.000000 0.000000 0.000000 -2.112257 -0.329029 -4.642656 -2.461373 5.132547 -0.064261 -2.634331 -2.873912 -1.320983 0.000000 0.000000 0.000000 33.256939 -3.514419 2.792435 32.629512 -2.001878 2.719834 33.005485 8.092115 12.986510 0.000000 0.000000 0.000000 
-1831.060181 1088.906738 1060.401001 -51.804901 -2.418647 0.315959 0.698680 0.936329 -0.183166 0.791026 -0.198203 0.050023 0.795462 0.190211 -0.060225 0.954454 2.226112 -2.005510 0.000000 0.000000 0.000000 -0.797792 1.114507 0.494602 1.190333 2.161711 -0.351251 0.870034 -1.007247 0.594437 0.000000 0.000000 0.000000 2.324744 2.457711 -2.045435 0.487199 2.531504 2.763948 0.201963 -0.604842 0.751819 0.000000 0.000000 0.000000 -2.106071 -0.339520 -4.647489 -2.456419 5.137289 -0.048815 -2.627639 -2.889791 -1.318963 0.000000 0.000000 0.000000 33.262396 -3.537982 2.794904 32.633231 -1.976142 2.733155 33.007138 8.089947 12.986719 0.000000 0.000000 0.000000 
-1831.103516 1088.961792 1060.401001 -51.821146 -2.421799 0.314524 0.706794 0.947271 -0.185645 0.799907 -0.199229 0.050316 0.804365 0.191469 -0.060434 0.956890 2.216416 -2.011618 0.000000 0.000000 0.000000 -0.789356 1.116074 0.503826 1.188250 2.164197 -0.345406 0.864484 -0.998238 0.589628 0.000000 0.000000 0.000000 2.320845 2.451087 -2.047910 0.488661 2.524873 2.765921 0.202648 -0.602652 0.752876 0.000000 0.000000 0.000000 -2.101489 -0.341021 -4.650053 -2.452987 5.133362 -0.039982 -2.622051 -2.881808 -1.316093 0.000000 0.000000 0.000000 33.268452 -3.544734 2.799018 32.638637 -1.965268 2.738935 33.011831 8.090787 12.988049 0.000000 0.000000 0.000000 
-1831.149536 1089.021240 1060.400024 -51.840774 -2.428196 0.314405 0.713592 0.966487 -0.188432 0.807892 -0.202671 0.049524 0.812509 0.195221 -0.060876 0.960941 2.206958 -2.020974 0.000000 0.000000 0.000000 -0.776038 1.113003 0.514985 1.184949 2.162383 -0.339533 0.858370 -0.987988 0.583519 0.000000 0.000000 0.000000 2.317125 2.442013 -2.050139 0.491923 2.515876 2.766480 0.206682 -0.593106 0.758285 0.000000 0.000000 0.000000 -2.097119 -0.338163 -4.651696 -2.449801 5.123728 -0.034325 -2.616272 -2.859788 -1.312353 0.000000 0.000000 0.000000 33.275440 -3.543368 2.803206 32.645336 -1.962113 2.741720 33.018685 8.093704 12.990101 0.000000 0.000000 0.000000 
-1831.191406 1089.076294 1060.400024 -51.854892 -2.431084 0.313280 0.718350 0.981479 -0.191818 0.813595 -0.204636 0.049392 0.818300 0.197505 -0.060890 0.965174 2.201467 -2.030310 0.000000 0.000000 0.000000 -0.770771 1.108437 0.527720 1.182679 2.158326 -0.336932 0.855444 -0.982654 0.580672 0.000000 0.000000 0.000000 2.310472 2.433580 -2.049019 0.495199 2.508373 2.763344 0.211962 -0.580379 0.764292 0.000000 0.000000 0.000000 -2.094566 -0.338458 -4.650342 -2.447398 5.114791 -0.032569 -2.612054 -2.839228 -1.309363 0.000000 0.000000 0.000000 33.280771 -3.545743 2.806023 32.650176 -1.959432 2.743637 33.023544 8.095899 12.991655 0.000000 0.000000 0.000000 
-1831.229492 1089.125366 1060.401978 -51.859382 -2.427345 0.309819 0.718643 0.990363 -0.193351 0.814184 -0.208094 0.049335 0.818938 0.200278 -0.060729 0.970414 2.198883 -2.041201 0.000000 0.000000 0.000000 -0.774255 1.101453 0.543048 1.182247 2.151063 -0.339600 0.857549 -0.985552 0.581985 0.000000 0.000000 0.000000 2.305169 2.426012 -2.042087 0.498367 2.502304 2.752968 0.219362 -0.562323 0.771776 0.000000 0.000000 0.000000 -2.094575 -0.345881 -4.642904 -2.445506 5.109900 -0.038306 -2.610281 -2.826920 -1.307871 0.000000 0.000000 0.000000 33.283779 -3.557036 2.807072 32.652360 -1.955135 2.744182 33.025097 8.096202 12.992509 0.000000 0.000000 0.000000 
-1831.261475 1089.170532 1060.406006 -51.858359 -2.419462 0.305241 0.716057 0.993617 -0.193441 0.811292 -0.209916 0.047560 0.816233 0.202721 -0.059426 0.976887 2.199863 -2.054094 0.000000 0.000000 0.000000 -0.781535 1.092763 0.560022 1.182674 2.141667 -0.345915 0.862685 -0.993201 0.586455 0.000000 0.000000 0.000000 2.300942 2.418985 -2.032521 0.501699 2.496985 2.739604 0.227940 -0.540878 0.779378 0.000000 0.000000 0.000000 -2.096488 -0.357139 -4.632555 -2.444419 5.105702 -0.047737 -2.610047 -2.815690 -1.307096 0.000000 0.000000 0.000000 33.285243 -3.572713 2.806196 32.652673 -1.951266 2.744230 33.024698 8.095903 12.992870 0.000000 0.000000 0.000000 
-1831.280151 1089.211426 1060.411011 -51.858434 -2.411498 0.300162 0.714476 0.994086 -0.195459 0.809551 -0.210554 0.047750 0.814458 0.202715 -0.059149 0.981071 2.202456 -2.062388 0.000000 0.000000 0.000000 -0.789771 1.087215 0.573820 1.185585 2.135727 -0.349110 0.869347 -1.004937 0.590465 0.000000 0.000000 0.000000 2.293352 2.414142 -2.024711 0.504201 2.494072 2.730971 0.233932 -0.526276 0.784547 0.000000 0.000000 0.000000 -2.098141 -0.366663 -4.624499 -2.443998 5.098459 -0.052518 -2.609178 -2.799232 -1.305773 0.000000 0.000000 0.000000 33.286619 -3.587274 2.805249 32.652840 -1.948524 2.744935 33.024452 8.095882 12.993182 0.000000 0.000000 0.000000 
-1831.282227 1089.246948 1060.418945 -51.859407 -2.404646 0.294675 0.714087 0.990026 -0.198892 0.808845 -0.207453 0.046807 0.813786 0.199736 -0.058353 0.981389 2.204533 -2.063142 0.000000 0.000000 0.000000 -0.795547 1.086957 0.583069 1.192633 2.135922 -0.347638 0.878765 -1.023583 0.594976 0.000000 0.000000 0.000000 2.282114 2.413078 -2.021132 0.505380 2.494685 2.732420 0.234565 -0.524303 0.782858 0.000000 0.000000 0.000000 -2.099909 -0.372876 -4.621429 -2.445458 5.087524 -0.047816 -2.607876 -2.773793 -1.303796 0.000000 0.000000 0.000000 33.287388 -3.601470 2.804560 32.652288 -1.943762 2.748992 33.023836 8.097527 12.992745 0.000000 0.000000 0.000000 
-1831.270386 1089.278809 1060.427979 -51.861463 -2.398051 0.288606 0.714397 0.983195 -0.203526 0.808878 -0.202701 0.046814 0.813770 0.195038 -0.057565 0.980330 2.207018 -2.061168 0.000000 0.000000 0.000000 -0.800313 1.089600 0.588397 1.202193 2.139485 -0.343097 0.889872 -1.046689 0.599234 0.000000 0.000000 0.000000 2.269412 2.413604 -2.019812 0.505872 2.496841 2.738491 0.232688 -0.528470 0.778284 0.000000 0.000000 0.000000 -2.101419 -0.376980 -4.620807 -2.447613 5.073556 -0.038027 -2.605904 -2.742881 -1.301247 0.000000 0.000000 0.000000 33.287844 -3.614336 2.804263 32.651411 -1.939717 2.753564 33.023151 8.099757 12.992080 0.000000 0.000000 0.000000 
-1831.247437 1089.305786 1060.437988 -51.868249 -2.387738 0.283639 0.717079 0.970629 -0.211335 0.811365 -0.199189 0.049314 0.815861 0.190569 -0.059273 0.978344 2.212831 -2.056980 0.000000 0.000000 0.000000 -0.806793 1.091963 0.595839 1.208503 2.142329 -0.339534 0.896791 -1.060649 0.602349 0.000000 0.000000 0.000000 2.259037 2.412011 -2.017896 0.507047 2.497028 2.745041 0.232414 -0.530055 0.777995 0.000000 0.000000 0.000000 -2.101947 -0.382657 -4.621418 -2.448997 5.054901 -0.028307 -2.602617 -2.711663 -1.298106 0.000000 0.000000 0.000000 33.290556 -3.624391 2.799956 32.652406 -1.943845 2.755726 33.025237 8.102959 12.992769 0.000000 0.000000 0.000000 
-1831.212891 1089.325562 1060.452026 -51.882331 -2.369714 0.280272 0.723777 0.947026 -0.224238 0.817752 -0.196923 0.054394 0.821551 0.188423 -0.062247 0.976086 2.223988 -2.051533 0.000000 0.000000 0.000000 -0.816874 1.092265 0.606000 1.208438 2.142190 -0.337179 0.896161 -1.057952 0.604232 0.000000 0.000000 0.000000 2.253239 2.404908 -2.017137 0.510468 2.491760 2.752258 0.236566 -0.522977 0.786824 0.000000 0.000000 0.000000 -2.101332 -0.392243 -4.623401 -2.449452 5.026887 -0.018440 -2.597194 -2.676907 -1.293840 0.000000 0.000000 0.000000 33.296709 -3.630308 2.788004 32.656096 -1.964426 2.752573 33.031811 8.108905 12.995629 0.000000 0.000000 0.000000 
-1831.165894 1089.341797 1060.467041 -51.902023 -2.348028 0.277863 0.733539 0.917985 -0.239339 0.827248 -0.196765 0.061786 0.829983 0.187871 -0.068332 0.972924 2.237384 -2.043897 0.000000 0.000000 0.000000 -0.829473 1.092239 0.618350 1.205358 2.141176 -0.336001 0.891741 -1.047179 0.604757 0.000000 0.000000 0.000000 2.248041 2.395114 -2.015444 0.514767 2.484209 2.759780 0.242522 -0.512452 0.799547 0.000000 0.000000 0.000000 -2.099250 -0.403462 -4.626622 -2.448616 4.994195 -0.008581 -2.589966 -2.641675 -1.288752 0.000000 0.000000 0.000000 33.305097 -3.633048 2.772357 32.661688 -1.993154 2.746629 33.041150 8.116139 12.999792 0.000000 0.000000 0.000000 
-1831.118164 1089.367920 1060.478027 -51.922028 -2.331469 0.276216 0.741764 0.895667 -0.251633 0.835210 -0.195836 0.066053 0.837333 0.187508 -0.071388 0.970848 2.243557 -2.039172 0.000000 0.000000 0.000000 -0.836087 1.091532 0.629200 1.202921 2.139916 -0.338336 0.888865 -1.040617 0.603899 0.000000 0.000000 0.000000 2.245353 2.385368 -2.014874 0.517875 2.476191 2.766500 0.245961 -0.507254 0.808074 0.000000 0.000000 0.000000 -2.094922 -0.412808 -4.629678 -2.445173 4.970190 -0.002974 -2.582312 -2.621114 -1.284260 0.000000 0.000000 0.000000 33.313938 -3.636523 2.760970 32.668364 -2.010018 2.743526 33.050130 8.121571 13.003609 0.000000 0.000000 0.000000 
